<svg xmlns="http://www.w3.org/2000/svg" shape-rendering="geometricPrecision" text-rendering="geometricPrecision" image-rendering="optimizeQuality" fill-rule="evenodd" clip-rule="evenodd" viewBox="0 0 389 512.102"><g fill-rule="nonzero"><path d="M263.348 333.251c9.616 1.46 18.409 3.326 26.369 5.597 12.162 2.646 22.706 6.077 31.638 10.284 16.229 7.641 28.557 17.68 36.944 30.086 8.57 12.685 12.859 27.471 12.859 44.345 0 13.915-2.493 26.417-7.476 37.485-5.1 11.329-12.711 20.941-22.811 28.796-9.743 7.576-21.791 13.23-36.12 16.944-13.657 3.54-29.276 5.314-46.835 5.314-7.562 0-16.481-.192-26.76-.571a995.4 995.4 0 01-29.79-1.548 823.68 823.68 0 01-62.833-6.63c-10.688-1.543-20.832-3.269-30.414-5.174-21.281-4.233-51.014-10.859-69.711-21.586-8.879-5.096-16.137-11.108-21.756-18.021-5.671-6.979-9.908-15.257-12.681-24.799C1.325 424.684 0 414.597 0 403.525c0-8.788 1.164-17.324 3.483-25.584 2.297-8.169 5.763-16.007 10.383-23.478 8.632-13.962 21.7-28.095 39.185-42.38 8.129-6.643 17.58-13.893 28.325-21.726 10.746-7.837 22.367-15.958 34.847-24.354l.066-.044c11.76-7.781 22.061-14.716 30.823-20.775 9.058-6.26 17.114-12.01 24.136-17.219 6.6-4.891 12.394-9.59 17.367-14.076 4.682-4.215 8.426-8.064 11.212-11.525 4.49-5.571 6.739-10.811 6.739-15.693 0-3.466-1.543-6.181-4.621-8.139a17.632 17.632 0 00-2.367-1.246c-3.936-.51-8.517-.767-13.722-.767-4.556 0-8.967.222-13.204.658-4.276.44-8.901 1.164-13.836 2.149l-15.893 3.086-16.587 3.091a196.667 196.667 0 01-18.992 2.541c-6.561.549-13.335.828-20.309.828-19.865 0-50.126-6.73-64.912-20.496-6.504-6.042-11.399-13.348-14.673-21.875-3.134-8.16-4.704-17.196-4.704-27.087 0-11.225 2.136-22.07 6.391-32.511 4.137-10.152 10.322-19.877 18.543-29.158 7.969-8.997 17.537-17.074 28.692-24.211 10.867-6.952 23.243-13.011 37.105-18.164 13.836-5.144 28.749-8.993 44.703-11.539C154.165 1.282 171.022 0 188.733 0c30.034 0 56.503 3.199 79.393 9.586 29.624 6.577 53.839 17.99 72.627 34.245 16.059 13.888 28.129 29.969 36.194 48.216 8.03 18.16 12.053 38.317 12.053 60.444 0 16.055-2.079 31.582-6.229 46.551-4.137 14.926-10.327 29.137-18.557 42.602-8.117 13.282-18.212 26.05-30.257 38.286-11.913 12.088-25.701 23.636-41.342 34.62-8.936 6.273-18.753 12.524-29.267 18.701z"/><path fill="#fff" d="M207.538 346.459c48.853-.344 84.75 4.883 107.679 15.684 27.681 13.034 41.521 33.513 41.521 61.42 0 23.793-8.234 42.092-24.708 54.904-16.468 12.807-41.176 19.215-74.114 19.215-16.477 0-35.003-.689-55.591-2.062a808.378 808.378 0 01-61.765-6.517c-20.588-2.973-39.572-6.748-56.956-11.325-20.589-5.946-35.344-14.411-44.267-25.392-8.919-10.98-13.383-26.307-13.383-45.98 0-15.095 3.893-28.936 11.67-41.516 7.776-12.581 19.786-25.505 36.028-38.775 16.242-13.269 36.944-28.365 62.104-45.291 22.877-15.1 41.408-27.907 55.588-38.43 14.185-10.523 24.59-19.904 31.225-28.139 6.634-8.234 9.951-16.468 9.951-24.703 0-8.696-3.775-15.444-11.325-20.248-7.545-4.804-19.328-7.206-35.339-7.206-9.608 0-19.56 1.029-29.856 3.091a2124.634 2124.634 0 01-32.253 6.177c-11.207 2.057-23.448 3.086-36.712 3.086-19.216 0-33.745-4.573-43.579-13.727-9.838-9.149-14.755-21.957-14.755-38.43 0-18.757 7.092-36.141 21.272-52.152 14.185-16.016 34.202-28.823 60.051-38.431 25.846-9.607 55.928-14.411 90.243-14.411 58.565 0 102.256 12.467 131.079 37.402 28.823 24.929 43.234 57.527 43.234 97.788 0 29.738-7.55 56.961-22.646 81.664-15.1 24.708-37.637 47.589-67.597 68.626-21.425 15.043-47.776 29.803-76.799 43.678z"/><path d="M266.182 73.164c3.766 2.907 4.463 8.33 1.556 12.096-2.908 3.766-8.331 4.464-12.097 1.556a18.632 18.632 0 00-2.768-1.765l-.414-.227a20.1 20.1 0 00-2.602-1.068c-4.516-1.491-6.966-6.364-5.475-10.88 1.491-4.516 6.364-6.966 10.88-5.475a37.562 37.562 0 015.061 2.088l.457.218a36.024 36.024 0 015.402 3.457zm-42.084-16.735c4.569 1.32 7.202 6.107 5.881 10.675-1.321 4.569-6.107 7.202-10.675 5.881-14.451-4.176-30.985-5.301-47.755-4.08-18.496 1.347-37.109 5.553-53.456 11.66-4.459 1.661-9.424-.61-11.085-5.069a8.622 8.622 0 015.069-11.086c17.891-6.687 38.178-11.277 58.252-12.741 18.596-1.356 37.183-.035 53.769 4.76z"/></g></svg>