<svg xmlns="http://www.w3.org/2000/svg" shape-rendering="geometricPrecision" text-rendering="geometricPrecision" image-rendering="optimizeQuality" fill-rule="evenodd" clip-rule="evenodd" viewBox="0 0 287 512.176"><g fill-rule="nonzero"><path d="M48.72 208.423c-4.746-.717-9.227-1.924-13.448-3.617-7.556-3.04-14.09-7.616-19.579-13.73-5.363-5.914-9.349-12.992-11.972-21.169C1.237 162.187 0 153.633 0 144.253c0-8.858 1.398-17.816 4.182-26.848 2.696-8.749 6.687-17.447 11.962-26.071 5.081-8.302 10.986-16.287 17.695-23.925 6.709-7.638 14.134-14.864 22.254-21.651A216.018 216.018 0 0181.847 27.26a213.917 213.917 0 0128.081-14.451c9.983-4.237 19.931-7.433 29.814-9.561C149.786 1.09 159.729.004 169.543.004c18.693-.187 46.805 6.431 62.063 17.473 7.139 5.003 13.548 11.681 19.202 20.022 5.297 7.821 9.969 17.13 13.986 27.904 3.465 8.888 6.548 19.266 9.253 31.103l.117.56c2.606 11.511 4.899 24.49 6.857 38.924 1.993 14.651 3.482 30.787 4.468 48.372 1.003 17.925 1.511 36.97 1.511 57.096 0 12.532-.364 25.602-1.081 39.185a763.165 763.165 0 01-3.131 39.523c-1.407 13.396-2.97 26.045-4.672 37.903a790.011 790.011 0 01-5.753 34.712c-2.146 11.325-4.386 21.342-6.714 30.022-2.436 9.085-5.028 16.979-7.742 23.653l-.299.686c-4.347 10.773-8.958 20.052-13.809 27.82-5.31 8.494-11.038 15.402-17.16 20.691-6.371 5.497-13.5 9.649-21.36 12.415-7.738 2.744-16.062 4.108-24.933 4.108-19.14 0-47.278-7.313-61.99-19.515-6.752-5.597-12.562-12.94-17.408-22.006-4.455-8.337-8.089-18.155-10.864-29.441-1.707-6.244-3.174-13.161-4.407-20.712a305.008 305.008 0 01-2.905-23.509c-.651-7.616-1.173-16.092-1.537-25.397-.378-9.475-.569-18.494-.569-27.048 0-11.468.421-23.414 1.25-35.82.795-11.802 2.028-24.16 3.704-37.069 1.711-13.179 3.613-25.637 5.697-37.339l.009-.056a745.17 745.17 0 015.232-26.571l-.707.235c-8.563 2.757-16.866 4.147-24.877 4.147-8.059 0-15.484-1.22-22.254-3.652z"/><path fill="#fff" d="M132.998 169.286c-6.118 5.576-12.887 10.656-19.644 14.751-15.033 9.106-29.167 13.674-42.38 13.674-14.13 0-25.181-4.443-33.157-13.331-7.977-8.889-11.963-21.303-11.963-37.256 0-15.038 4.672-30.192 14.012-45.46 9.345-15.267 21.651-29.279 36.918-42.041 15.267-12.762 32.015-23.014 50.244-30.76 18.229-7.747 36.231-11.624 54.004-11.624 16.861 0 30.991 3.99 42.385 11.962 11.394 7.977 20.738 21.764 28.029 41.36 6.379 16.405 11.507 38.85 15.38 67.335 3.873 28.481 5.81 63.006 5.81 103.562 0 25.524-1.363 51.274-4.099 77.249-2.736 25.975-6.153 49.788-10.257 71.438-4.099 21.647-8.658 38.62-13.669 50.926-8.202 20.508-17.317 35.09-27.343 43.753-10.031 8.658-22.336 12.987-36.922 12.987-16.861 0-30.647-4.446-41.355-13.33-10.713-8.889-18.572-23.583-23.587-44.092-3.188-11.849-5.467-25.749-6.835-41.702-1.368-15.949-2.05-33.04-2.05-51.269 0-22.788 1.594-46.484 4.786-71.095a772.448 772.448 0 0112.987-72.802c2.71-11.864 5.662-23.44 8.706-34.235z"/><path d="M222.592 224.433c.035 4.737-3.778 8.619-8.515 8.654-4.738.034-8.62-3.778-8.654-8.515l-.139-12.515c-.035-4.737 3.777-8.619 8.515-8.654 4.737-.034 8.619 3.778 8.654 8.516l.139 12.514zm-1.546-43.553c.26 4.738-3.374 8.797-8.112 9.058-4.737.26-8.797-3.374-9.057-8.111-.938-16.714-2.779-32.962-5.211-49.337-2.436-16.431-5.467-32.94-8.767-50.161-.89-4.664 2.171-9.175 6.835-10.066 4.663-.89 9.175 2.172 10.065 6.835 3.348 17.491 6.431 34.247 8.897 50.9 2.48 16.722 4.373 33.452 5.35 50.882z"/></g></svg>